<?xml version="1.0" encoding="UTF-8"?>
<svg version="1.1" xmlns="http://www.w3.org/2000/svg" width="48" height="48">
<path d="M0 0 C5.82485779 3.51996782 10.54466582 8.98962934 12.5625 15.5 C13.36764105 23.33608208 13.68710392 31.11922577 8.5625 37.5 C3.75801361 42.54521222 -0.59927055 46.10562995 -7.70703125 46.8359375 C-16.22326573 46.92983204 -22.11345494 46.6177288 -28.40234375 40.62890625 C-34.7841668 33.72505269 -35.91792252 28.29832071 -35.7421875 18.9453125 C-35.04689797 11.08319245 -31.38995981 6.95041296 -25.53515625 1.9453125 C-18.47077988 -2.92213491 -7.84396301 -3.47595223 0 0 Z " fill="#22ACCF" transform="translate(35.4375,1.5)"/>
<path d="M0 0 C2.31 0 4.62 0 7 0 C5.35 3.63 3.7 7.26 2 11 C2.66 11 3.32 11 4 11 C4 11.99 4 12.98 4 14 C-0.29 14 -4.58 14 -9 14 C-10 9 -10 9 -7.8125 5.6875 C-5 3 -5 3 -1 3 C-0.67 2.01 -0.34 1.02 0 0 Z " fill="#F3FAFC" transform="translate(19,15)"/>
<path d="M0 0 C5.36311036 0.26375953 5.36311036 0.26375953 8 1 C9.875 3.5 9.875 3.5 11 6 C11.66 6.33 12.32 6.66 13 7 C12.67 8.65 12.34 10.3 12 12 C7.71 12 3.42 12 -1 12 C-0.34 10.35 0.32 8.7 1 7 C0.34 6.67 -0.32 6.34 -1 6 C-0.67 4.02 -0.34 2.04 0 0 Z " fill="#F5FBFC" transform="translate(26,17)"/>
<path d="M0 0 C0.12375 0.61875 0.2475 1.2375 0.375 1.875 C0.87197356 4.19120832 0.87197356 4.19120832 3 6 C1.68 6 0.36 6 -1 6 C-1.33 7.98 -1.66 9.96 -2 12 C-1.01 12.33 -0.02 12.66 1 13 C-0.485 15.475 -0.485 15.475 -2 18 C1.63 18 5.26 18 9 18 C9 18.33 9 18.66 9 19 C5.04 19 1.08 19 -3 19 C-3.99 21.475 -3.99 21.475 -5 24 C-5.66 24.66 -6.32 25.32 -7 26 C-6.67 23.69 -6.34 21.38 -6 19 C-8.97 19 -11.94 19 -15 19 C-15 18.67 -15 18.34 -15 18 C-11.37 18 -7.74 18 -4 18 C-4 17.01 -4 16.02 -4 15 C-4.66 15 -5.32 15 -6 15 C-4.40109514 9.80355921 -2.25861997 4.93387858 0 0 Z " fill="#4FBFDB" transform="translate(27,11)"/>
<path d="M0 0 C0.33 0 0.66 0 1 0 C1.80956938 16.01148325 1.80956938 16.01148325 -3 22 C-7.80448639 27.04521222 -12.16177055 30.60562995 -19.26953125 31.3359375 C-26.66805094 31.41750883 -31.77666352 31.14889098 -38 27 C-38.33 26.34 -38.66 25.68 -39 25 C-34 27 -34 27 -31.6953125 28.05078125 C-25.93087924 30.08086427 -19.34572533 29.8253478 -13.625 27.8125 C-12.325625 26.9153125 -12.325625 26.9153125 -11 26 C-9.96875 25.29875 -8.9375 24.5975 -7.875 23.875 C-2.32427092 18.9653 -0.86537161 12.58592637 -0.25 5.4375 C-0.15048181 3.62581658 -0.06136638 1.81337665 0 0 Z " fill="#1694BB" transform="translate(47,17)"/>
<path d="M0 0 C3.63 0 7.26 0 11 0 C11.33 0.99 11.66 1.98 12 3 C10.0625 5.6875 10.0625 5.6875 8 8 C8.33 5.69 8.66 3.38 9 1 C6.03 1 3.06 1 0 1 C0 0.67 0 0.34 0 0 Z " fill="#60C4DD" transform="translate(12,29)"/>
</svg>
